<?xml version="1.0" encoding="utf-8"?>
<!-- Generator: Adobe Illustrator 16.0.0, SVG Export Plug-In . SVG Version: 6.00 Build 0)  -->
<!DOCTYPE svg PUBLIC "-//W3C//DTD SVG 1.1//EN" "http://www.w3.org/Graphics/SVG/1.1/DTD/svg11.dtd">
<svg version="1.1" id="Layer_1" xmlns="http://www.w3.org/2000/svg" xmlns:xlink="http://www.w3.org/1999/xlink" x="0px" y="0px"
	 width="340.909px" height="340.26px" viewBox="0 0 340.909 340.26" enable-background="new 0 0 340.909 340.26"
	 xml:space="preserve">
<g>
	<path fill="#006838" stroke="#000000" stroke-miterlimit="10" d="M116.159,35.783L116.159,35.783l-7.653-18.478l0,0
		C66.411,34.742,35.368,67.59,19.209,106.603l18.477,7.653C51.887,79.972,79.167,51.106,116.159,35.783z"/>
	<path fill="#006838" stroke="#000000" stroke-miterlimit="10" d="M227.139,35.783l7.653-18.477
		c-39.013-16.16-84.19-17.437-126.286,0l7.654,18.478C153.153,20.46,192.854,21.582,227.139,35.783z"/>
	<path fill="#006838" stroke="#000000" stroke-miterlimit="10" d="M305.612,114.257l18.477-7.653
		c-17.437-42.096-50.284-73.138-89.297-89.298l-7.653,18.477C261.423,49.983,290.289,77.264,305.612,114.257z"/>
	<path fill="#006838" stroke="#000000" stroke-miterlimit="10" d="M37.687,225.235c-15.323-36.993-14.201-76.695,0-110.979
		l-18.477-7.653C3.05,145.616,1.773,190.793,19.21,232.889l0,0L37.687,225.235L37.687,225.235z"/>
	<path fill="#006838" stroke="#000000" stroke-miterlimit="10" d="M227.139,303.709l7.654,18.478
		c42.095-17.437,73.137-50.285,89.297-89.298l-18.478-7.654C291.411,259.519,264.132,288.385,227.139,303.709z"/>
	<path fill="#006838" stroke="#000000" stroke-miterlimit="10" d="M324.089,106.604L324.089,106.604l-18.477,7.653l0,0
		c15.322,36.993,14.2,76.694,0,110.978l18.478,7.654C340.248,193.876,341.525,148.699,324.089,106.604z"/>
	<path fill="#006838" stroke="#000000" stroke-miterlimit="10" d="M37.687,225.235l-18.477,7.653
		c17.437,42.096,50.285,73.139,89.297,89.298l7.654-18.478C81.876,289.509,53.009,262.229,37.687,225.235z"/>
	<path fill="#006838" stroke="#000000" stroke-miterlimit="10" d="M227.138,303.709c-36.992,15.323-76.693,14.201-110.977,0
		l-7.654,18.478c39.013,16.16,84.19,17.437,126.285,0c0,0,0,0,0.001,0L227.138,303.709L227.138,303.709z"/>
	<path fill="#427B52" stroke="#000000" stroke-miterlimit="10" d="M65.404,213.755l-27.717,11.48
		c15.323,36.993,44.19,64.273,78.474,78.474l11.48-27.716C100.45,264.729,77.556,243.094,65.404,213.755z"/>
	<path fill="#427B52" stroke="#000000" stroke-miterlimit="10" d="M65.403,213.754c-12.153-29.339-11.264-60.827-0.001-88.017
		l-27.716-11.48c-14.201,34.284-15.323,73.986,0,110.979l0,0L65.403,213.754C65.403,213.755,65.403,213.754,65.403,213.754z"/>
	<path fill="#427B52" stroke="#000000" stroke-miterlimit="10" d="M127.64,63.499L127.64,63.499l-11.48-27.716h0
		c-36.993,15.323-64.272,44.189-78.473,78.473l27.716,11.48C76.665,98.546,98.301,75.652,127.64,63.499z"/>
	<path fill="#427B52" stroke="#000000" stroke-miterlimit="10" d="M215.658,63.5l11.48-27.717
		c-34.284-14.201-73.985-15.323-110.979,0l11.48,27.716C156.979,51.347,188.467,52.237,215.658,63.5z"/>
	<path fill="#427B52" stroke="#000000" stroke-miterlimit="10" d="M227.139,35.783L215.658,63.5
		c27.19,11.263,50.085,32.899,62.237,62.238l27.717-11.48C290.289,77.264,261.423,49.983,227.139,35.783z"/>
	<path fill="#427B52" stroke="#000000" stroke-miterlimit="10" d="M215.657,275.993c-29.339,12.152-60.826,11.263-88.016,0
		l-11.48,27.716c34.284,14.201,73.985,15.323,110.977,0h0.001L215.657,275.993C215.658,275.993,215.657,275.993,215.657,275.993z"/>
	<path fill="#427B52" stroke="#000000" stroke-miterlimit="10" d="M277.896,125.737c12.152,29.338,11.263,60.826,0,88.017
		l27.717,11.48c14.2-34.284,15.322-73.985,0-110.978l0,0L277.896,125.737L277.896,125.737z"/>
	<path fill="#427B52" stroke="#000000" stroke-miterlimit="10" d="M215.658,275.992l11.48,27.717
		c36.993-15.324,64.272-44.19,78.474-78.475l-27.717-11.48C266.633,240.945,244.997,263.84,215.658,275.992z"/>
	<path fill="#628C6A" stroke="#000000" stroke-miterlimit="10" d="M204.177,248.276c-21.685,8.982-44.958,8.324-65.055,0
		l-11.48,27.717c27.19,11.263,58.677,12.152,88.016,0c0,0,0.001,0,0.001-0.001L204.177,248.276L204.177,248.276z"/>
	<path fill="#628C6A" stroke="#000000" stroke-miterlimit="10" d="M93.119,202.274l-27.715,11.48
		c12.152,29.339,35.046,50.975,62.237,62.238l11.48-27.717C119.024,239.951,102.102,223.96,93.119,202.274z"/>
	<path fill="#628C6A" stroke="#000000" stroke-miterlimit="10" d="M93.119,202.274c-8.982-21.686-8.325-44.959,0-65.057
		l-27.717-11.48c-11.263,27.19-12.152,58.678,0.001,88.017c0,0,0,0.001,0,0.001L93.119,202.274L93.119,202.274z"/>
	<path fill="#628C6A" stroke="#000000" stroke-miterlimit="10" d="M139.12,91.216L139.12,91.216l-11.48-27.717h0
		c-29.339,12.153-50.975,35.047-62.237,62.238l27.717,11.48C101.443,117.12,117.435,100.198,139.12,91.216z"/>
	<path fill="#628C6A" stroke="#000000" stroke-miterlimit="10" d="M250.179,202.273l27.717,11.48
		c11.263-27.191,12.152-58.678,0-88.017l0,0l-27.717,11.48C259.161,158.903,258.503,182.176,250.179,202.273z"/>
	<path fill="#628C6A" stroke="#000000" stroke-miterlimit="10" d="M127.64,63.499l11.48,27.717c21.686-8.982,44.959-8.325,65.057,0
		l11.48-27.716C188.467,52.237,156.979,51.347,127.64,63.499z"/>
	<path fill="#628C6A" stroke="#000000" stroke-miterlimit="10" d="M204.178,248.276l11.48,27.716
		c29.339-12.152,50.975-35.047,62.237-62.238l-27.717-11.48C241.854,222.371,225.863,239.294,204.178,248.276z"/>
	<path fill="#628C6A" stroke="#000000" stroke-miterlimit="10" d="M250.179,137.218L250.179,137.218l27.717-11.48
		c-12.152-29.339-35.047-50.975-62.237-62.238l-11.48,27.716C224.274,99.541,241.196,115.532,250.179,137.218z"/>
	<path fill="#809F83" stroke="#000000" stroke-miterlimit="10" d="M192.697,220.561l11.48,27.716
		c21.686-8.982,37.677-25.905,46.001-46.003l-27.716-11.48C217.077,203.798,206.729,214.748,192.697,220.561z"/>
	<path fill="#809F83" stroke="#000000" stroke-miterlimit="10" d="M120.835,190.794l-27.716,11.48
		c8.983,21.686,25.905,37.677,46.002,46.002l11.48-27.716C137.598,215.174,126.648,204.826,120.835,190.794z"/>
	<path fill="#809F83" stroke="#000000" stroke-miterlimit="10" d="M192.696,220.561c-14.031,5.812-29.09,5.387-42.095,0
		l-11.48,27.716c20.097,8.324,43.371,8.982,65.055,0h0.001L192.696,220.561L192.696,220.561z"/>
	<path fill="#809F83" stroke="#000000" stroke-miterlimit="10" d="M120.835,190.793c-5.812-14.032-5.386-29.091,0-42.096
		l-27.716-11.48c-8.325,20.098-8.982,43.371,0,65.057v0L120.835,190.793C120.835,190.794,120.835,190.794,120.835,190.793z"/>
	<path fill="#809F83" stroke="#000000" stroke-miterlimit="10" d="M93.119,137.217l27.716,11.48
		c5.386-13.004,15.734-23.954,29.765-29.766h0l-11.48-27.716h0C117.435,100.198,101.443,117.12,93.119,137.217z"/>
	<path fill="#809F83" stroke="#000000" stroke-miterlimit="10" d="M192.697,118.932l11.48-27.716
		c-20.098-8.325-43.372-8.982-65.057,0l11.48,27.716C164.633,113.12,179.692,113.545,192.697,118.932z"/>
	<path fill="#809F83" stroke="#000000" stroke-miterlimit="10" d="M222.463,148.698L222.463,148.698l27.716-11.48l0,0
		c-8.982-21.686-25.904-37.677-46.001-46.002l-11.48,27.716C205.701,124.319,216.65,134.667,222.463,148.698z"/>
	<path fill="#809F83" stroke="#000000" stroke-miterlimit="10" d="M222.463,190.793l27.716,11.48
		c8.324-20.097,8.982-43.371,0-65.056l-27.716,11.48C228.274,162.73,227.85,177.789,222.463,190.793z"/>
	<path fill="#A1B6A1" stroke="#000000" stroke-miterlimit="10" d="M190.127,177.399l32.336,13.394
		c5.387-13.004,5.812-28.063,0-42.095l-32.336,13.394C192.24,167.195,192.086,172.67,190.127,177.399z"/>
	<path fill="#A1B6A1" stroke="#000000" stroke-miterlimit="10" d="M179.303,188.224l13.395,32.337
		c14.032-5.813,24.38-16.763,29.766-29.767l-32.336-13.394C188.168,182.128,184.405,186.11,179.303,188.224z"/>
	<path fill="#A1B6A1" stroke="#000000" stroke-miterlimit="10" d="M153.171,177.4l-32.336,13.394
		c5.813,14.032,16.762,24.38,29.766,29.767l13.395-32.337C159.267,186.265,155.285,182.502,153.171,177.4z"/>
	<path fill="#A1B6A1" stroke="#000000" stroke-miterlimit="10" d="M179.303,188.224c-5.103,2.113-10.578,1.958-15.307,0
		l-13.395,32.337c13.004,5.387,28.063,5.812,42.095,0h0.001L179.303,188.224L179.303,188.224z"/>
	<path fill="#A1B6A1" stroke="#000000" stroke-miterlimit="10" d="M120.835,190.793
		C120.835,190.794,120.835,190.794,120.835,190.793l32.336-13.394c0,0,0,0,0,0c-2.113-5.103-1.958-10.579,0-15.308l-32.336-13.394
		C115.449,161.702,115.023,176.762,120.835,190.793z"/>
	<path fill="#A1B6A1" stroke="#000000" stroke-miterlimit="10" d="M190.127,162.092L190.127,162.092l32.336-13.394l0,0
		c-5.813-14.032-16.762-24.379-29.766-29.766l-13.395,32.336C184.032,153.227,188.014,156.989,190.127,162.092z"/>
	<path fill="#A1B6A1" stroke="#000000" stroke-miterlimit="10" d="M179.303,151.268l13.395-32.336
		c-13.005-5.387-28.064-5.813-42.096,0l13.395,32.337C169.098,149.155,174.574,149.31,179.303,151.268z"/>
	<path fill="#A1B6A1" stroke="#000000" stroke-miterlimit="10" d="M163.995,151.269L163.995,151.269l-13.394-32.337h0
		c-14.031,5.813-24.379,16.762-29.765,29.766l32.336,13.394C155.13,157.363,158.893,153.382,163.995,151.269z"/>
	<polygon fill="#C4D0C3" stroke="#000000" stroke-miterlimit="10" points="171.649,169.746 171.649,169.746 171.65,169.746 	"/>
	<polygon fill="#C4D0C3" stroke="#000000" stroke-miterlimit="10" points="171.649,169.746 171.649,169.746 171.649,169.746 	"/>
	<path fill="#C4D0C3" stroke="#000000" stroke-miterlimit="10" d="M190.127,162.092L190.127,162.092
		c-2.113-5.103-6.095-8.865-10.824-10.824c-4.729-1.958-10.205-2.113-15.307,0h0c-5.103,2.113-8.865,6.095-10.824,10.823
		c-1.959,4.729-2.114,10.205,0,15.308c0,0,0,0,0,0c2.114,5.103,6.095,8.865,10.825,10.824c4.729,1.958,10.204,2.113,15.307,0
		c5.103-2.114,8.865-6.096,10.824-10.824C192.086,172.67,192.24,167.195,190.127,162.092z"/>
</g>
</svg>
