<?xml version="1.0" encoding="utf-8"?>
<!DOCTYPE svg PUBLIC "-//W3C//DTD SVG 1.1//EN" "http://www.w3.org/Graphics/SVG/1.1/DTD/svg11.dtd">
<svg version="1.1" id="Layer_1" xmlns="http://www.w3.org/2000/svg" xmlns:xlink="http://www.w3.org/1999/xlink" x="0px" y="0px"
	 width="266.883px" height="320.779px" viewBox="0 0 266.883 320.779" enable-background="new 0 0 266.883 320.779"
	 xml:space="preserve">
	<g>
		<rect x="14.266" y="251.543" fill="#939598" stroke="#000000" stroke-width="0.75" stroke-miterlimit="10" width="23.765" height="59.956"/>
		<rect x="14.266" y="11.086" fill="#939598" stroke="#000000" stroke-width="0.75" stroke-miterlimit="10" width="23.765" height="59.957"/>
		<rect x="230.531" y="11.086" fill="#939598" stroke="#000000" stroke-width="0.75" stroke-miterlimit="10" width="23.765" height="59.957"/>
		<rect x="230.531" y="251.543" fill="#939598" stroke="#000000" stroke-width="0.75" stroke-miterlimit="10" width="23.765" height="59.956"/>
		<rect x="194.031" y="11.086" fill="#BCBEC0" stroke="#000000" stroke-width="0.75" stroke-miterlimit="10" width="36.5" height="59.957"/>
		<rect x="38.031" y="11.086" fill="#BCBEC0" stroke="#000000" stroke-width="0.75" stroke-miterlimit="10" width="36.5" height="59.957"/>
		<rect x="38.031" y="251.543" fill="#BCBEC0" stroke="#000000" stroke-width="0.75" stroke-miterlimit="10" width="36.5" height="59.956"/>
		<rect x="194.031" y="251.543" fill="#BCBEC0" stroke="#000000" stroke-width="0.75" stroke-miterlimit="10" width="36.5" height="59.956"/>
		<rect x="74.531" y="251.543" fill="#E6E7E8" stroke="#000000" stroke-width="0.75" stroke-miterlimit="10" width="32.827" height="59.956"/>
		<rect x="161.205" y="11.086" fill="#E6E7E8" stroke="#000000" stroke-width="0.75" stroke-miterlimit="10" width="32.826" height="59.957"/>
		<rect x="74.531" y="11.086" fill="#E6E7E8" stroke="#000000" stroke-width="0.75" stroke-miterlimit="10" width="32.827" height="59.957"/>
		<rect x="161.205" y="251.543" fill="#E6E7E8" stroke="#000000" stroke-width="0.75" stroke-miterlimit="10" width="32.826" height="59.956"/>
		<rect x="107.357" y="251.543" fill="#FFFFFF" stroke="#000000" stroke-width="0.75" stroke-miterlimit="10" width="53.847" height="59.956"/>
		<rect x="107.357" y="11.086" fill="#FFFFFF" stroke="#000000" stroke-width="0.75" stroke-miterlimit="10" width="53.847" height="59.957"/>
		<rect x="230.531" y="191.293" fill="#939598" stroke="#000000" stroke-width="0.75" stroke-miterlimit="10" width="23.765" height="60.25"/>
		<rect x="14.266" y="71.043" fill="#939598" stroke="#000000" stroke-width="0.75" stroke-miterlimit="10" width="23.765" height="60.25"/>
		<rect x="14.266" y="191.293" fill="#939598" stroke="#000000" stroke-width="0.75" stroke-miterlimit="10" width="23.765" height="60.25"/>
		<rect x="230.531" y="71.043" fill="#939598" stroke="#000000" stroke-width="0.75" stroke-miterlimit="10" width="23.765" height="60.25"/>
		<rect x="194.031" y="71.043" fill="#BCBEC0" stroke="#000000" stroke-width="0.75" stroke-miterlimit="10" width="36.5" height="60.25"/>
		<rect x="194.031" y="191.293" fill="#BCBEC0" stroke="#000000" stroke-width="0.75" stroke-miterlimit="10" width="36.5" height="60.25"/>
		<rect x="38.031" y="71.043" fill="#BCBEC0" stroke="#000000" stroke-width="0.75" stroke-miterlimit="10" width="36.5" height="60.25"/>
		<rect x="38.031" y="191.293" fill="#BCBEC0" stroke="#000000" stroke-width="0.75" stroke-miterlimit="10" width="36.5" height="60.25"/>
		<rect x="74.531" y="191.293" fill="#E6E7E8" stroke="#000000" stroke-width="0.75" stroke-miterlimit="10" width="32.827" height="60.25"/>
		<rect x="74.531" y="71.043" fill="#E6E7E8" stroke="#000000" stroke-width="0.75" stroke-miterlimit="10" width="32.827" height="60.25"/>
		<rect x="161.205" y="191.293" fill="#E6E7E8" stroke="#000000" stroke-width="0.75" stroke-miterlimit="10" width="32.826" height="60.25"/>
		<rect x="161.205" y="71.043" fill="#E6E7E8" stroke="#000000" stroke-width="0.75" stroke-miterlimit="10" width="32.826" height="60.25"/>
		<rect x="107.357" y="71.043" fill="#FFFFFF" stroke="#000000" stroke-width="0.75" stroke-miterlimit="10" width="53.847" height="60.25"/>
		<rect x="107.357" y="191.293" fill="#FFFFFF" stroke="#000000" stroke-width="0.75" stroke-miterlimit="10" width="53.847" height="60.25"/>
		<rect x="14.266" y="131.293" fill="#939598" stroke="#000000" stroke-width="0.75" stroke-miterlimit="10" width="23.765" height="60"/>
		<rect x="230.531" y="131.293" fill="#939598" stroke="#000000" stroke-width="0.75" stroke-miterlimit="10" width="23.765" height="60"/>
		<rect x="38.031" y="131.293" fill="#BCBEC0" stroke="#000000" stroke-width="0.75" stroke-miterlimit="10" width="36.5" height="60"/>
		<rect x="194.031" y="131.293" fill="#BCBEC0" stroke="#000000" stroke-width="0.75" stroke-miterlimit="10" width="36.5" height="60"/>
		<rect x="161.205" y="131.293" fill="#E6E7E8" stroke="#000000" stroke-width="0.75" stroke-miterlimit="10" width="32.826" height="60"/>
		<rect x="74.531" y="131.293" fill="#E6E7E8" stroke="#000000" stroke-width="0.75" stroke-miterlimit="10" width="32.827" height="60"/>
		<rect x="107.357" y="131.293" fill="#FFFFFF" stroke="#000000" stroke-width="0.75" stroke-miterlimit="10" width="53.847" height="60"/>
	</g>
</svg>
