<?xml version="1.0" encoding="utf-8"?>
<!DOCTYPE svg PUBLIC "-//W3C//DTD SVG 1.1//EN" "http://www.w3.org/Graphics/SVG/1.1/DTD/svg11.dtd">
<svg version="1.1" id="Layer_1" xmlns="http://www.w3.org/2000/svg" xmlns:xlink="http://www.w3.org/1999/xlink" x="0px" y="0px"
	 width="266.883px" height="268.182px" viewBox="0 0 266.883 268.182" enable-background="new 0 0 266.883 268.182"
	 xml:space="preserve">
  <g>
	<path fill="#FFFFFF" stroke="#000000" stroke-width="0.75" stroke-miterlimit="10" d="M42.091,171.257
		c-10.479-25.297-9.773-52.434-0.169-75.922l-18.477-7.654c-11.563,28.218-12.423,60.83,0.169,91.229
		c0.083,0.2,0.171,0.396,0.254,0.595l18.477-7.653C42.262,171.652,42.174,171.457,42.091,171.257z"/>
	<path fill="#FFFFFF" stroke="#000000" stroke-width="0.75" stroke-miterlimit="10" d="M172.842,41.107l7.653-18.478
		c-28.409-11.894-61.37-12.897-92.072-0.18l7.653,18.478C121.678,30.323,149.162,31.172,172.842,41.107z"/>
	<path fill="#FFFFFF" stroke="#000000" stroke-width="0.75" stroke-miterlimit="10" d="M245.124,87.858l-18.478,7.653
		c10.343,25.43,9.438,52.668-0.419,76.164l18.479,7.653C256.521,151.105,257.582,118.389,245.124,87.858z"/>
	<path fill="#FFFFFF" stroke="#000000" stroke-width="0.75" stroke-miterlimit="10" d="M226.406,94.912
		c0.083,0.2,0.157,0.401,0.24,0.6l18.478-7.653c-0.081-0.2-0.157-0.4-0.24-0.601c-12.592-30.399-36.259-52.852-64.388-64.628
		l-7.653,18.478C196.242,50.925,215.927,69.615,226.406,94.912z"/>
	<path fill="#FFFFFF" stroke="#000000" stroke-width="0.75" stroke-miterlimit="10" d="M96.076,40.928L96.076,40.928L88.423,22.45
		C57.721,35.167,35.125,59.182,23.446,87.681l18.477,7.654C51.642,71.564,70.476,51.531,96.076,40.928z"/>
	<path fill="#FFFFFF" stroke="#000000" stroke-width="0.75" stroke-miterlimit="10" d="M172.422,225.242l7.653,18.477
		c30.399-12.591,52.854-36.26,64.63-64.39l-18.479-7.653C216.41,195.076,197.72,214.763,172.422,225.242z"/>
	<path fill="#FFFFFF" stroke="#000000" stroke-width="0.75" stroke-miterlimit="10" d="M42.345,171.852l-18.477,7.653
		c12.781,30.397,36.665,52.782,64.979,64.384l7.653-18.477C72.915,215.769,53.013,197.147,42.345,171.852z"/>
	<path fill="#FFFFFF" stroke="#000000" stroke-width="0.75" stroke-miterlimit="10" d="M172.421,225.242
		c-25.297,10.479-52.433,9.773-75.921,0.17l-7.653,18.477c28.217,11.563,60.83,12.422,91.229-0.17L172.421,225.242L172.421,225.242z
		"/>
	<path fill="#FFFFFF" stroke="#000000" stroke-width="0.75" stroke-miterlimit="10" d="M104.304,60.791l-8.228-19.863l-0.001,0
		c-25.6,10.604-44.434,30.637-54.153,54.407l19.869,8.23C69.406,84.878,84.19,69.122,104.304,60.791z"/>
	<path fill="#FFFFFF" stroke="#000000" stroke-width="0.75" stroke-miterlimit="10" d="M61.956,163.029
		c-8.206-19.812-7.663-41.06-0.164-59.465l-19.869-8.23c-9.604,23.488-10.31,50.625,0.169,75.922c0.083,0.2,0.171,0.396,0.254,0.595
		l19.873-8.231C62.133,163.42,62.039,163.229,61.956,163.029z"/>
	<path fill="#FFFFFF" stroke="#000000" stroke-width="0.75" stroke-miterlimit="10" d="M164.612,60.976l8.23-19.868
		c-23.681-9.935-51.164-10.784-76.766-0.18l8.228,19.863C124.419,52.458,146.014,53.146,164.612,60.976z"/>
	<path fill="#FFFFFF" stroke="#000000" stroke-width="0.75" stroke-miterlimit="10" d="M62.218,163.62l-19.873,8.231
		c10.668,25.296,30.569,43.917,54.155,53.561l8.23-19.87C86.23,198.004,70.613,183.43,62.218,163.62z"/>
	<path fill="#FFFFFF" stroke="#000000" stroke-width="0.75" stroke-miterlimit="10" d="M104.731,205.542l-8.23,19.87
		c23.488,9.604,50.624,10.309,75.921-0.17h0.001l-8.228-19.863C144.383,213.584,123.135,213.042,104.731,205.542z"/>
	<path fill="#FFFFFF" stroke="#000000" stroke-width="0.75" stroke-miterlimit="10" d="M172.842,41.107l-8.23,19.868
		c18.316,7.712,33.725,22.353,41.931,42.164c0.083,0.2,0.151,0.402,0.232,0.603l19.871-8.23c-0.083-0.199-0.157-0.4-0.24-0.6
		C215.927,69.615,196.242,50.925,172.842,41.107z"/>
	<path fill="#FFFFFF" stroke="#000000" stroke-width="0.75" stroke-miterlimit="10" d="M206.359,163.446l19.868,8.229
		c9.856-23.496,10.762-50.734,0.419-76.164l-19.871,8.23C214.846,123.686,214.109,145.033,206.359,163.446z"/>
	<path fill="#FFFFFF" stroke="#000000" stroke-width="0.75" stroke-miterlimit="10" d="M164.195,205.379l8.228,19.863
		c25.298-10.479,43.987-30.166,53.805-53.566l-19.868-8.229C198.647,181.764,184.006,197.172,164.195,205.379z"/>
	<path fill="#FFFFFF" stroke="#000000" stroke-width="0.75" stroke-miterlimit="10" d="M89.472,152.331L62.218,163.62
		c8.395,19.81,24.012,34.384,42.513,41.922l11.289-27.254C104.495,173.64,94.75,164.615,89.472,152.331z"/>
	<path fill="#FFFFFF" stroke="#000000" stroke-width="0.75" stroke-miterlimit="10" d="M89.209,151.74
		c-5.089-12.286-4.774-25.457-0.163-36.887l-27.255-11.289c-7.499,18.405-8.042,39.653,0.164,59.465
		c0.083,0.2,0.178,0.391,0.263,0.591l27.254-11.289C89.387,152.133,89.292,151.94,89.209,151.74z"/>
	<path fill="#FFFFFF" stroke="#000000" stroke-width="0.75" stroke-miterlimit="10" d="M115.593,88.045l-11.289-27.255
		c-20.114,8.332-34.898,24.087-42.513,42.774l27.255,11.289C93.77,103.142,103.005,93.26,115.593,88.045z"/>
	<path fill="#FFFFFF" stroke="#000000" stroke-width="0.75" stroke-miterlimit="10" d="M116.02,178.288l-11.289,27.254
		c18.404,7.5,39.652,8.042,59.464-0.163l-11.289-27.255C140.62,183.213,127.449,182.898,116.02,178.288z"/>
	<path fill="#FFFFFF" stroke="#000000" stroke-width="0.75" stroke-miterlimit="10" d="M179.288,114.429
		c0.083,0.2,0.152,0.403,0.233,0.603l27.254-11.289c-0.081-0.201-0.149-0.403-0.232-0.603
		c-8.206-19.811-23.614-34.452-41.931-42.164L153.323,88.23C164.665,93.052,174.2,102.144,179.288,114.429z"/>
	<path fill="#FFFFFF" stroke="#000000" stroke-width="0.75" stroke-miterlimit="10" d="M104.304,60.791l11.289,27.255
		c12.59-5.214,26.108-4.756,37.729,0.185l11.289-27.255C146.014,53.146,124.419,52.458,104.304,60.791z"/>
	<path fill="#FFFFFF" stroke="#000000" stroke-width="0.75" stroke-miterlimit="10" d="M152.906,178.124l11.289,27.255
		c19.812-8.207,34.452-23.615,42.164-41.933l-27.255-11.29C174.283,163.499,165.191,173.035,152.906,178.124z"/>
	<path fill="#FFFFFF" stroke="#000000" stroke-width="0.75" stroke-miterlimit="10" d="M179.104,152.156l27.255,11.29
		c7.75-18.413,8.487-39.761,0.416-59.704l-27.254,11.289C184.475,127.448,183.966,140.719,179.104,152.156z"/>
	<path fill="#FFFFFF" stroke="#000000" stroke-width="0.75" stroke-miterlimit="10" d="M129.705,145.249l-13.685,33.039
		c11.429,4.61,24.6,4.925,36.886-0.164l-13.682-33.03C136.059,146.405,132.678,146.361,129.705,145.249z"/>
	<path fill="#FFFFFF" stroke="#000000" stroke-width="0.75" stroke-miterlimit="10" d="M122.515,138.644l-33.043,13.688
		c5.277,12.284,15.022,21.309,26.548,25.957l13.685-33.039C126.635,144.102,124.012,141.806,122.515,138.644z"/>
	<path fill="#FFFFFF" stroke="#000000" stroke-width="0.75" stroke-miterlimit="10" d="M122.239,138.059
		c-1.312-3.164-1.267-6.546-0.154-9.52l-33.038-13.685c-4.611,11.43-4.926,24.601,0.163,36.887c0.083,0.2,0.178,0.393,0.263,0.591
		l33.043-13.688C122.425,138.449,122.322,138.261,122.239,138.059z"/>
	<path fill="#FFFFFF" stroke="#000000" stroke-width="0.75" stroke-miterlimit="10" d="M139.224,145.094l13.682,33.03
		c12.285-5.089,21.377-14.625,26.198-25.968l-33.038-13.684C144.749,141.361,142.388,143.783,139.224,145.094z"/>
	<path fill="#FFFFFF" stroke="#000000" stroke-width="0.75" stroke-miterlimit="10" d="M139.637,121.269l13.686-33.039
		c-11.621-4.941-25.14-5.399-37.729-0.185l13.682,33.028C132.742,119.638,136.471,119.826,139.637,121.269z"/>
	<path fill="#FFFFFF" stroke="#000000" stroke-width="0.75" stroke-miterlimit="10" d="M89.046,114.854l33.038,13.685
		c1.22-3.259,3.722-6.028,7.19-7.465l-13.682-33.028C103.005,93.26,93.77,103.142,89.046,114.854z"/>
	<path fill="#FFFFFF" stroke="#000000" stroke-width="0.75" stroke-miterlimit="10" d="M146.259,128.109
		c0.084,0.202,0.145,0.407,0.219,0.609l33.043-13.688c-0.081-0.2-0.15-0.402-0.233-0.603c-5.088-12.285-14.623-21.376-25.965-26.198
		l-13.686,33.039C142.527,122.586,144.949,124.945,146.259,128.109z"/>
	<path fill="#FFFFFF" stroke="#000000" stroke-width="0.75" stroke-miterlimit="10" d="M146.066,138.473l33.038,13.684
		c4.862-11.438,5.371-24.708,0.417-37.125l-33.043,13.688C147.654,132.012,147.424,135.488,146.066,138.473z"/>
	<polygon fill="#FFFFFF" stroke="#000000" stroke-width="0.75" stroke-miterlimit="10" points="134.497,133.68 134.497,133.682 
		134.498,133.681 	"/>
	<polygon fill="#FFFFFF" stroke="#000000" stroke-width="0.75" stroke-miterlimit="10" points="134.496,133.68 134.497,133.682 
		134.497,133.68 	"/>
	<path fill="#FFFFFF" stroke="#000000" stroke-width="0.75" stroke-miterlimit="10" d="M146.478,128.719
		c-0.074-0.203-0.135-0.407-0.219-0.609c-1.311-3.164-3.732-5.523-6.622-6.84c-3.166-1.443-6.896-1.631-10.362-0.195
		c-3.469,1.437-5.971,4.206-7.19,7.465c-1.112,2.974-1.157,6.356,0.154,9.52c0.083,0.202,0.187,0.391,0.276,0.585
		c1.497,3.162,4.12,5.458,7.189,6.605c2.974,1.112,6.354,1.156,9.52-0.155c3.164-1.311,5.524-3.732,6.842-6.621
		C147.424,135.488,147.654,132.012,146.478,128.719z M134.497,133.682l-0.001-0.002h0.001V133.682L134.497,133.682z"/>
  </g>
</svg>
