<svg xmlns="http://www.w3.org/2000/svg" version="1.1" x="0" y="0" width="266.9" height="268.2" viewBox="0 0 266.9 268.2" enable-background="new 0 0 266.883 268.182" xml:space="preserve">
  <path fill="#FFFFFF" stroke="#000000" stroke-width="0.8" stroke-miterlimit="10" d="M42.1 171.3c-10.5-25.3-9.8-52.4-0.2-75.9l-18.5-7.7c-11.6 28.2-12.4 60.8 0.2 91.2 0.1 0.2 0.2 0.4 0.3 0.6l18.5-7.7C42.3 171.7 42.2 171.5 42.1 171.3zM172.8 41.1l7.7-18.5c-28.4-11.9-61.4-12.9-92.1-0.2l7.7 18.5C121.7 30.3 149.2 31.2 172.8 41.1zM245.1 87.9l-18.5 7.7c10.3 25.4 9.4 52.7-0.4 76.2l18.5 7.7C256.5 151.1 257.6 118.4 245.1 87.9zM226.4 94.9c0.1 0.2 0.2 0.4 0.2 0.6l18.5-7.7c-0.1-0.2-0.2-0.4-0.2-0.6 -12.6-30.4-36.3-52.9-64.4-64.6l-7.7 18.5C196.2 50.9 215.9 69.6 226.4 94.9zM96.1 40.9L96.1 40.9 88.4 22.5C57.7 35.2 35.1 59.2 23.4 87.7l18.5 7.7C51.6 71.6 70.5 51.5 96.1 40.9zM172.4 225.2l7.7 18.5c30.4-12.6 52.9-36.3 64.6-64.4l-18.5-7.7C216.4 195.1 197.7 214.8 172.4 225.2zM42.3 171.9l-18.5 7.7c12.8 30.4 36.7 52.8 65 64.4l7.7-18.5C72.9 215.8 53 197.1 42.3 171.9zM172.4 225.2c-25.3 10.5-52.4 9.8-75.9 0.2l-7.7 18.5c28.2 11.6 60.8 12.4 91.2-0.2L172.4 225.2 172.4 225.2zM104.3 60.8l-8.2-19.9 0 0c-25.6 10.6-44.4 30.6-54.2 54.4l19.9 8.2C69.4 84.9 84.2 69.1 104.3 60.8zM62 163c-8.2-19.8-7.7-41.1-0.2-59.5l-19.9-8.2c-9.6 23.5-10.3 50.6 0.2 75.9 0.1 0.2 0.2 0.4 0.3 0.6l19.9-8.2C62.1 163.4 62 163.2 62 163zM164.6 61l8.2-19.9c-23.7-9.9-51.2-10.8-76.8-0.2l8.2 19.9C124.4 52.5 146 53.1 164.6 61zM62.2 163.6l-19.9 8.2c10.7 25.3 30.6 43.9 54.2 53.6l8.2-19.9C86.2 198 70.6 183.4 62.2 163.6zM104.7 205.5l-8.2 19.9c23.5 9.6 50.6 10.3 75.9-0.2h0l-8.2-19.9C144.4 213.6 123.1 213 104.7 205.5zM172.8 41.1l-8.2 19.9c18.3 7.7 33.7 22.4 41.9 42.2 0.1 0.2 0.2 0.4 0.2 0.6l19.9-8.2c-0.1-0.2-0.2-0.4-0.2-0.6C215.9 69.6 196.2 50.9 172.8 41.1zM206.4 163.4l19.9 8.2c9.9-23.5 10.8-50.7 0.4-76.2l-19.9 8.2C214.8 123.7 214.1 145 206.4 163.4zM164.2 205.4l8.2 19.9c25.3-10.5 44-30.2 53.8-53.6l-19.9-8.2C198.6 181.8 184 197.2 164.2 205.4zM89.5 152.3L62.2 163.6c8.4 19.8 24 34.4 42.5 41.9l11.3-27.3C104.5 173.6 94.8 164.6 89.5 152.3zM89.2 151.7c-5.1-12.3-4.8-25.5-0.2-36.9l-27.3-11.3c-7.5 18.4-8 39.7 0.2 59.5 0.1 0.2 0.2 0.4 0.3 0.6l27.3-11.3C89.4 152.1 89.3 151.9 89.2 151.7zM115.6 88l-11.3-27.3c-20.1 8.3-34.9 24.1-42.5 42.8l27.3 11.3C93.8 103.1 103 93.3 115.6 88zM116 178.3l-11.3 27.3c18.4 7.5 39.7 8 59.5-0.2l-11.3-27.3C140.6 183.2 127.4 182.9 116 178.3zM179.3 114.4c0.1 0.2 0.2 0.4 0.2 0.6l27.3-11.3c-0.1-0.2-0.1-0.4-0.2-0.6 -8.2-19.8-23.6-34.5-41.9-42.2L153.3 88.2C164.7 93.1 174.2 102.1 179.3 114.4zM104.3 60.8l11.3 27.3c12.6-5.2 26.1-4.8 37.7 0.2l11.3-27.3C146 53.1 124.4 52.5 104.3 60.8zM152.9 178.1l11.3 27.3c19.8-8.2 34.5-23.6 42.2-41.9l-27.3-11.3C174.3 163.5 165.2 173 152.9 178.1zM179.1 152.2l27.3 11.3c7.8-18.4 8.5-39.8 0.4-59.7l-27.3 11.3C184.5 127.4 184 140.7 179.1 152.2zM129.7 145.2l-13.7 33c11.4 4.6 24.6 4.9 36.9-0.2l-13.7-33C136.1 146.4 132.7 146.4 129.7 145.2zM122.5 138.6l-33 13.7c5.3 12.3 15 21.3 26.5 26l13.7-33C126.6 144.1 124 141.8 122.5 138.6zM122.2 138.1c-1.3-3.2-1.3-6.5-0.2-9.5l-33-13.7c-4.6 11.4-4.9 24.6 0.2 36.9 0.1 0.2 0.2 0.4 0.3 0.6l33-13.7C122.4 138.4 122.3 138.3 122.2 138.1zM139.2 145.1l13.7 33c12.3-5.1 21.4-14.6 26.2-26l-33-13.7C144.7 141.4 142.4 143.8 139.2 145.1zM139.6 121.3l13.7-33c-11.6-4.9-25.1-5.4-37.7-0.2l13.7 33C132.7 119.6 136.5 119.8 139.6 121.3zM89 114.9l33 13.7c1.2-3.3 3.7-6 7.2-7.5l-13.7-33C103 93.3 93.8 103.1 89 114.9zM146.3 128.1c0.1 0.2 0.1 0.4 0.2 0.6l33-13.7c-0.1-0.2-0.1-0.4-0.2-0.6 -5.1-12.3-14.6-21.4-26-26.2l-13.7 33C142.5 122.6 144.9 124.9 146.3 128.1zM146.1 138.5l33 13.7c4.9-11.4 5.4-24.7 0.4-37.1l-33 13.7C147.7 132 147.4 135.5 146.1 138.5z"/><polygon fill="#FFFFFF" stroke="#000000" stroke-width="0.8" stroke-miterlimit="10" points="134.5 133.7 134.5 133.7 134.5 133.7 "/><polygon fill="#FFFFFF" stroke="#000000" stroke-width="0.8" stroke-miterlimit="10" points="134.5 133.7 134.5 133.7 134.5 133.7 "/>
  <path fill="#FFFFFF" stroke="#000000" stroke-width="0.8" stroke-miterlimit="10" d="M146.5 128.7c-0.1-0.2-0.1-0.4-0.2-0.6 -1.3-3.2-3.7-5.5-6.6-6.8 -3.2-1.4-6.9-1.6-10.4-0.2 -3.5 1.4-6 4.2-7.2 7.5 -1.1 3-1.2 6.4 0.2 9.5 0.1 0.2 0.2 0.4 0.3 0.6 1.5 3.2 4.1 5.5 7.2 6.6 3 1.1 6.4 1.2 9.5-0.2 3.2-1.3 5.5-3.7 6.8-6.6C147.4 135.5 147.7 132 146.5 128.7zM134.5 133.7l0 0h0V133.7L134.5 133.7z"/>
</svg>